# xmcd
#
# Track frame offsets: 
#        150
#        18846
#        37961
#        57437
#        72112
#        88768
#        107493
#        124506
#        140799
#
# Disc length: 2137 seconds
#
# Revision: 0
# Processed by: cddbd v1.5.2PL0 Copyright (c) Steve Scherf et al.
# Submitted via: ExactAudioCopyFreeDBPlugin 1.0
#
DISCID=73085709
DTITLE=Robynn and Kendy - 如果 我不完美
DYEAR=2015
DGENRE=Vocal
TTITLE0=想怎樣(feat. 陳樂基@KillerSoap and 鄧小巧
TTITLE1=碳粉自己
TTITLE2=我不完美
TTITLE3=如果一天有25小時
TTITLE4=我是傻瓜
TTITLE5=不想想你
TTITLE6=那些回憶
TTITLE7=幸福好寂寞
TTITLE8=新一天 (feat. 林奕匡)
EXTD=
EXTT0=
EXTT1=
EXTT2=
EXTT3=
EXTT4=
EXTT5=
EXTT6=
EXTT7=
EXTT8=
PLAYORDER=
